<?xml version="1.0" encoding="utf-8"?>
<!-- Generator: Adobe Illustrator 27.0.0, SVG Export Plug-In . SVG Version: 6.00 Build 0)  -->
<svg version="1.1" id="Layer_1" xmlns="http://www.w3.org/2000/svg" xmlns:xlink="http://www.w3.org/1999/xlink" x="0px" y="0px"
	 viewBox="0 0 100 100" style="enable-background:new 0 0 100 100;" xml:space="preserve">
<style type="text/css">
	.st0{fill:#E8E8E8;}
</style>
<path class="st0" d="M73.42,49.21c-0.04,1.63-0.98,2.49-2.31,3.11c-6.3,2.91-12.57,5.88-18.9,8.74c-1.42,0.64-2.32,1.51-2.96,2.94
	c-2.81,6.24-5.73,12.42-8.61,18.63C40,84,39.28,85.26,37.5,85.23c-1.74-0.03-2.51-1.22-3.15-2.61c-2.95-6.39-5.96-12.76-8.88-19.17
	c-0.48-1.04-1.14-1.65-2.16-2.12c-6.45-2.96-12.86-5.98-19.3-8.95c-1.31-0.6-2.43-1.3-2.43-2.92c0-1.7,1.08-2.57,2.51-3.23
	c6.49-2.99,12.97-5.99,19.42-9.06c0.74-0.35,1.48-1.07,1.82-1.8c3.07-6.45,6.04-12.95,9.1-19.4c0.39-0.83,1-1.7,1.74-2.18
	c1.55-1,3.28-0.28,4.17,1.6c2,4.23,3.95,8.48,5.92,12.72c1.12,2.42,2.18,4.87,3.4,7.24c0.38,0.73,1.08,1.46,1.81,1.81
	c6.49,3.09,13.03,6.1,19.55,9.13C72.33,46.89,73.38,47.66,73.42,49.21z"/>
<path class="st0" d="M80.1,37.46c-1.18-0.05-1.82-0.71-2.2-1.76c-1.04-2.88-2.2-5.72-3.15-8.63c-0.42-1.3-1.15-1.94-2.4-2.36
	c-2.8-0.95-5.55-2.06-8.33-3.1c-1.04-0.39-1.95-0.9-1.98-2.17c-0.03-1.36,0.92-1.89,2.02-2.3c3.01-1.12,6.03-2.22,9.01-3.42
	c0.56-0.23,1.14-0.81,1.37-1.37c1.2-2.98,2.3-6,3.42-9.01c0.41-1.1,0.95-2.04,2.31-2.01c1.27,0.03,1.78,0.95,2.17,1.99
	c1.06,2.87,2.18,5.73,3.19,8.62c0.36,1.04,0.93,1.65,1.99,2.01c2.9,0.99,5.76,2.09,8.64,3.13c1.11,0.4,2.01,0.97,2.02,2.31
	c0,1.34-0.89,1.91-2,2.32c-3.02,1.1-6.05,2.18-9.03,3.36c-0.56,0.22-1.14,0.81-1.37,1.37c-1.22,3.08-2.35,6.2-3.48,9.31
	C81.9,36.8,81.23,37.42,80.1,37.46z"/>
<path class="st0" d="M80.1,61.75c1.18,0.06,1.76,0.79,2.14,1.82c1.11,3.01,2.2,6.04,3.43,9.01c0.28,0.68,0.99,1.39,1.67,1.66
	c2.88,1.17,5.83,2.19,8.75,3.25c1.1,0.4,2.04,0.93,2.07,2.27c0.03,1.42-0.93,1.99-2.09,2.41c-2.84,1.02-5.64,2.12-8.5,3.08
	c-1.12,0.38-1.7,1.01-2.08,2.11c-0.93,2.76-2,5.47-2.99,8.21c-0.42,1.18-0.87,2.31-2.38,2.33c-1.51,0.02-2.01-1.07-2.43-2.26
	c-1.02-2.84-2.1-5.65-3.09-8.49c-0.33-0.94-0.83-1.49-1.78-1.82c-2.79-0.98-5.55-2.06-8.33-3.09c-1.2-0.44-2.48-0.83-2.46-2.44
	c0.02-1.52,1.24-1.91,2.39-2.34c2.78-1.03,5.54-2.11,8.33-3.09c1-0.35,1.54-0.94,1.89-1.92c1.06-2.98,2.21-5.93,3.31-8.89
	C78.33,62.52,78.93,61.8,80.1,61.75z"/>
</svg>
